<?xml version="1.0" standalone="no"?>
<!DOCTYPE svg PUBLIC "-//W3C//DTD SVG 20010904//EN"
 "http://www.w3.org/TR/2001/REC-SVG-20010904/DTD/svg10.dtd">
<svg version="1.0" xmlns="http://www.w3.org/2000/svg"
 width="56.000000pt" height="56.000000pt" viewBox="0 0 56.000000 56.000000"
 preserveAspectRatio="xMidYMid meet">

<g transform="translate(0.000000,56.000000) scale(0.100000,-0.100000)"
fill="#000000" stroke="none">
<path d="M149 478 c-4 -38 0 -57 21 -100 26 -57 49 -62 89 -19 l27 29 27 -24
c16 -13 31 -24 35 -24 33 1 81 117 54 134 -4 2 -30 -11 -57 -29 -28 -19 -54
-34 -58 -35 -8 0 -12 3 -68 50 -38 31 -68 39 -70 18z m216 -58 c-3 -5 -14 -10
-23 -9 -14 0 -13 2 3 9 27 11 27 11 20 0z m-135 -12 c0 -4 -6 -8 -14 -8 -8 0
-17 4 -20 8 -2 4 4 8 15 8 10 0 19 -4 19 -8z"/>
<path d="M90 322 c0 -4 7 -18 16 -30 35 -51 125 -69 159 -32 23 25 13 37 -18
22 -46 -23 -75 -19 -114 18 -33 31 -43 36 -43 22z"/>
<path d="M436 301 c-36 -38 -68 -46 -107 -25 -33 17 -45 14 -36 -10 8 -20 49
-30 90 -22 35 7 92 57 85 76 -2 6 -16 -2 -32 -19z"/>
<path d="M54 273 c4 -15 20 -44 35 -63 35 -43 89 -61 193 -62 73 0 81 2 135
37 37 24 64 51 75 73 10 20 15 38 13 40 -2 3 -9 -7 -16 -21 -7 -17 -32 -35
-73 -53 -54 -24 -71 -27 -146 -24 -47 2 -100 3 -118 3 -22 0 -31 5 -28 13 3 7
-2 10 -15 7 -15 -4 -19 0 -20 18 -3 49 -4 54 -23 57 -16 3 -18 0 -12 -25z"/>
<path d="M0 84 l0 -84 124 0 c71 0 127 4 131 10 3 5 1 19 -6 31 -9 17 -8 23 2
30 18 11 50 11 69 -1 13 -8 13 -13 2 -30 -7 -11 -10 -25 -7 -30 4 -6 60 -10
126 -10 l119 0 0 80 0 80 -72 -36 c-40 -20 -85 -47 -99 -61 -17 -16 -29 -21
-33 -14 -4 6 -1 11 7 11 20 0 28 25 14 39 -6 6 -46 11 -94 11 -68 0 -85 -3
-90 -16 -4 -10 1 -22 11 -29 9 -7 13 -16 8 -19 -5 -3 -18 4 -28 15 -10 11 -55
39 -101 63 l-83 43 0 -83z"/>
</g>
</svg>
